# xmcd
#
# Track frame offsets:
#	150
#	13747
#	22770
#	31560
#	41510
#	52057
#	63775
#	72152
#	85857
#	94975
#	106022
#	114745
#	124130
#	134905
#	142897
#	154527
#	162840
#	171987
#	182902
#	192797
#	205530
#	218487
#	234517
#	243620
#	251455
#	261237
#	274437
#	284955
#	297622
#
# Disc length: 4141 seconds
# Revision: 1
# Processed by: cddbd v1.5.2PL0 Copyright (c) Steve Scherf et al.
# Submitted via: dBpowerAMP V12.0
#
DISCID=ac102b1d
DTITLE=Johnny Cash - The Man in Black: 1959-1962 [CD4]
DYEAR=1991
DGENRE=Country
TTITLE0=Tennessee Flat Top Box
TTITLE1=Sing It Pretty Sue [Original]
TTITLE2=A Little At A Time
TTITLE3=So Do I
TTITLE4=Bonanza
TTITLE5=Shamrock Doesn't Grow In California
TTITLE6=I'm Free From The Chain Gang Now
TTITLE7=Delia's Gone [Original]
TTITLE8=Lost In The Desert
TTITLE9=Forgot More Than You'll Ever Know About Her [Later Version]
TTITLE10=Accidentally On Purpose
TTITLE11=You remembered Me
TTITLE12=In The Jailhouse Now
TTITLE13=Let Me Down Easy
TTITLE14=In Them Old Cottonfields Back Home
TTITLE15=You Won't Have Far To Go
TTITLE16=Delia's Gone [Alternate]
TTITLE17=No One Will Ever Know
TTITLE18=The Danger Zone
TTITLE19=I'll Be All Smiles Tonight
TTITLE20=Send A Picture Of Mother
TTITLE21=Hardin' Wouldn't Run
TTITLE22=Sing It Pretty Sue [Alternate]
TTITLE23=Blue Bandana
TTITLE24=So Doggone Lonesome [Later Version]
TTITLE25=Johnny Reb
TTITLE26=Delia's Gone [Alternate 2]
TTITLE27=I Walk The Line [Later Version - Slow]
TTITLE28=I Walk The Line [Later Version - Fast]
EXTD=
EXTT0=
EXTT1=
EXTT2=
EXTT3=
EXTT4=
EXTT5=
EXTT6=
EXTT7=
EXTT8=
EXTT9=
EXTT10=
EXTT11=
EXTT12=
EXTT13=
EXTT14=
EXTT15=
EXTT16=
EXTT17=
EXTT18=
EXTT19=
EXTT20=
EXTT21=
EXTT22=
EXTT23=
EXTT24=
EXTT25=
EXTT26=
EXTT27=
EXTT28=
PLAYORDER=
